<?xml version="1.0" encoding="UTF-8"?>
<svg id="Layer_1" data-name="Layer 1" xmlns="http://www.w3.org/2000/svg" viewBox="0 0 85.79 76.6">
  <defs>
    <style>
      .cls-1 {
        fill: #ef4823;
      }
    </style>
  </defs>
  <path class="cls-1" d="M44.44,28.65l8.99,16.78c.63,1.17-.22,2.58-1.55,2.58h-17.91c-1.32,0-2.17-1.41-1.55-2.58l8.93-16.78c.66-1.24,2.43-1.24,3.09,0Z"/>
  <path class="cls-1" d="M82.98,64.11L49.06,5.36c-2.74-4.75-9.6-4.75-12.34,0L2.8,64.11c-2.74,4.75.69,10.69,6.17,10.69h67.84c5.48,0,8.91-5.94,6.17-10.69ZM61.34,60.92l-4.07-7.58c-.27-.5-.8-.82-1.37-.82h-26.02c-.57,0-1.1.31-1.37.82l-4.07,7.58c-.27.5-.8.82-1.37.82h-4.43c-1.18,0-1.93-1.26-1.36-2.3l20.89-38.14c.27-.5.79-.81,1.36-.81h6.81c.57,0,1.09.31,1.36.81l20.81,38.14c.56,1.03-.18,2.3-1.36,2.3h-4.44c-.57,0-1.1-.31-1.37-.82Z"/>
</svg>