<svg xmlns="http://www.w3.org/2000/svg" version="1.1" viewBox="-5.0 -10.0 110.0 135.0">
 <g>
  <path d="m66.406 23.41c1.2031-0.019531 2.1797-0.98438 2.2109-2.1875 0.011718-2.0977-0.007813-4.1992 0.027343-6.2969-0.027343-0.66406 0.11328-1.3242 0.40234-1.9219 0.5-0.73047 1.1094-1.3828 1.8086-1.9258 0.9375-0.85156 1.6875-1.8945 2.1914-3.0586 0.25-0.95312 0.33203-1.9453 0.24219-2.9297 0.066407-0.76953-0.007812-1.543-0.21875-2.2852-0.40625-0.91016-1.3984-1.4062-2.3672-1.1836-0.88281 0.17969-1.5547 0.88672-1.6953 1.7773 0.019532 1.0234-0.0625 2.0469-0.23828 3.0547-0.46094 1.3477-1.7656 2.082-2.6758 3.0938v-0.003906c-1.2539 1.375-1.9219 3.1875-1.8594 5.0469 0.007813 2.2031 0 4.4062 0.023437 6.6094l-0.003906 0.003906c0.035156 1.1836 0.96875 2.1445 2.1523 2.207z"/>
  <path d="m30.758 21.109c1.1641-0.11719 2.0547-1.0938 2.0664-2.2617 0.015625-2.1484-0.050781-4.3047 0.046875-6.4531 0.125-0.91797 0.67188-1.7227 1.4727-2.1836 0.66797-0.42188 1.1133-1.1133 1.2305-1.8945 0.11328-0.83984-0.36328-1.6523-1.1484-1.9648-0.61719-0.22266-1.293-0.21875-1.9062 0.007813-2.3594 0.92969-3.9609 3.1484-4.0938 5.6836-0.035156 2.2617 0.003907 4.5234 0 6.7852h-0.003906c-0.003906 0.61719 0.23828 1.2109 0.67969 1.6406 0.44141 0.42969 1.0391 0.66406 1.6562 0.64062z"/>
  <path d="m14.352 55.805c-0.62109-0.21094-1.2695-0.3125-1.9219-0.29688-0.21484 0.003907-0.41406 0.11719-0.52734 0.30078-0.11719 0.17969-0.13672 0.41016-0.050782 0.60547 0.29688 0.42969 0.63672 0.83203 1.0117 1.1914 1.5312 1.9258 2.4922 4.2383 2.7734 6.6836 0.54688 3.6797-0.38672 7.3672-0.14844 11.059 0.046875 3.3164 1.0586 6.5508 2.9102 9.3008 1.1406 2.0039 2.8398 3.6328 4.8906 4.6914 1.0195-0.32422 1.9805-0.80469 2.9922-1.1484 1.125-0.44141 2.3164-0.69531 3.4609-1.0742-2.1875-2.625-3.3008-5.9766-3.125-9.3906 0.10156-2.9023 0.89453-5.7383 2.3164-8.2695 0.25781-0.55859 0.625-1.0586 1.082-1.4688 0.34766-0.23828 0.77734-0.31641 1.1875-0.21484 0.40625 0.097656 0.75391 0.36719 0.94922 0.73828 0.20703 0.49609 0.25781 1.0469 0.14844 1.5703-0.40625 2.7227 0.19141 5.4961 1.6797 7.8125 0.76562 1.1133 1.832 1.9883 3.0742 2.5234 1.4414 0.49219 3.0234-0.14844 3.7188-1.5039 0.59766-1.6094 0.67969-3.3633 0.23828-5.0234-0.9375-3.3945-1.2461-6.9297-0.92188-10.438 0.69141-3.0625 1.8984-5.9805 3.5781-8.6328 1.4844-2.4062 2.3086-5.1602 2.3906-7.9844-0.011719-0.65625 0.027344-1.4727 0.66797-1.8398 0.32813-0.17578 0.71875-0.19922 1.0703-0.066406 0.34766 0.13281 0.625 0.41016 0.75391 0.76172 2.0703 4.2695 3.1133 8.9609 3.0469 13.703-0.14453 2.0703-0.14844 4.1445-0.019531 6.2109 0.16406 1.5781 1.0742 2.9805 2.4453 3.7773 0.92578 0.48438 2.0508 0.34766 2.832-0.34375 0.98828-0.96875 1.5273-2.3086 1.4844-3.6953-0.0625-0.70312 0.007812-1.4141 0.20703-2.0938 0.35156-0.66016 1.1719-0.91016 1.832-0.5625 0.48828 0.52344 0.85547 1.1523 1.0625 1.8398 1.3086 3.4141 1.8633 7.0664 1.6289 10.715-0.14453 2.7891-0.92969 5.5078-2.3008 7.9375 0.61719 0.16797 1.2578 0.22656 1.8945 0.17187 1.0469-0.25391 2.0195-0.73828 2.8555-1.4141 1.9805-1.5078 3.4531-3.5898 4.2148-5.9609 0.39453-1.3086 0.58984-2.668 0.57422-4.0352 0.050781-0.51172 0.32031-0.97266 0.74219-1.2695 0.42188-0.29297 0.94922-0.39062 1.4453-0.26172 1.0156 0.27344 1.3906 1.3828 1.6914 2.2773 0.83984 2.8828 0.92969 5.9336 0.25781 8.8633-0.54687 1.9023-1.4961 3.6641-2.7773 5.1719-0.14453 0.17578-0.26953 0.36719-0.36719 0.57422 1.793 0.55469 3.5547 1.2031 5.2773 1.9453 2.8359-1.6367 5.082-4.1289 6.4219-7.1172 1.4531-3.1875 2.1445-6.668 2.0312-10.172-0.007812-3.4922-0.94922-6.8867-1.1758-10.355h-0.003907c-0.28906-2.9102 0.35156-5.8398 1.8359-8.3633 0.57031-0.77344 1.2109-1.4961 1.9062-2.1562 0.14062-0.14062 0.20312-0.34375 0.17188-0.53906-0.03125-0.19922-0.15625-0.36719-0.33594-0.45703-0.51172-0.16406-1.0586-0.18359-1.5781-0.046875-2.8867 0.5625-5.5352 1.9844-7.5977 4.0781-2.2266 2.2461-4.0938 4.8398-6.5391 6.8672-0.87109 0.77734-1.9609 1.2695-3.1211 1.4141-0.56641 0.003907-1.1133-0.22266-1.5156-0.625-0.39844-0.40625-0.62109-0.95312-0.60938-1.5234 0.10938-0.86719 0.41016-1.6992 0.875-2.4414 1.707-3 4.25-5.4883 5.5508-8.7266l-0.003906-0.003906c1.5742-4.2539 1.1875-8.9883-1.0586-12.93-1.3984-2.2852-3.3008-4.2148-5.5664-5.6445-0.27734-0.21484-0.63672-0.28906-0.97656-0.21094-0.17969 0.089844-0.3125 0.25-0.375 0.44141-0.0625 0.19141-0.042968 0.39844 0.050782 0.57812 0.34375 0.71484 0.78125 1.3867 1.0586 2.1367v-0.003906c0.70703 1.8906 0.92578 3.9258 0.64453 5.9219-0.27734 2.918-1.8594 5.5586-4.3047 7.1797-0.94922 0.65234-2.1055 0.92188-3.2422 0.75391-1.0234-0.19141-1.8398-0.96875-2.0859-1.9805-0.050781-1.043 0.15234-2.0859 0.59766-3.0312 0.59766-1.9844 0.72656-4.0781 0.37891-6.1211-0.47656-2.5312-1.4492-4.9414-2.8594-7.0977-1.8477-2.9688-4.0664-5.7852-5.125-9.168-1.0547-3.1289-1.2617-6.4844-0.59766-9.7188 0.09375-0.3125-0.019532-0.64844-0.28516-0.83594-0.26953-0.1875-0.625-0.18359-0.88672 0.007812-1.7148 1.5859-3.2344 3.3672-4.5273 5.3125-1.9883 2.8906-3.4883 6.0859-4.4375 9.4648-0.94141 3.6992-1.0586 7.5664-0.33594 11.316 0.375 2.3008 1.1484 4.5195 1.4492 6.8359h-0.003906c0.17578 1.0977 0.10938 2.2188-0.19922 3.2852-0.21484 0.77344-0.85156 1.3594-1.6406 1.5078-1.25 0.046875-2.4688-0.41016-3.3828-1.2734-1.4688-1.2656-2.7109-2.7773-3.6641-4.4688-1.2188-2.2656-1.7734-4.832-1.5977-7.3984 0.054687-0.35938-0.12891-0.71484-0.45312-0.87891-0.32422-0.16797-0.71875-0.10547-0.97656 0.15234-0.68359 1.2031-1.3164 2.4375-1.9023 3.6914-1.5742 3.4336-2.3438 7.1797-2.2539 10.957-0.070312 2.9648 0.86719 5.8516 0.71875 8.8203h0.003907c0.035156 0.95703-0.23828 1.8984-0.78125 2.6875-0.32813 0.38281-0.82813 0.57812-1.3281 0.51953-0.97266-0.18359-1.8828-0.60156-2.6484-1.2227-1.8359-1.2344-3.8359-2.1953-5.9453-2.8555zm16.82-3.1016-0.003906 0.003906c0.80859-0.35156 1.75-0.097656 2.2734 0.60938 0.40625 0.73828 0.6875 1.543 0.82422 2.3711 0.38281 1.1055 0.69531 2.2266 0.94531 3.3672 0.046874 0.59766-0.18359 1.1797-0.62109 1.5898-0.43359 0.41016-1.0352 0.59766-1.625 0.51172-0.73438-0.14062-1.332-0.66406-1.5781-1.3672-0.26953-0.73047-0.38281-1.5039-0.61719-2.2422l0.003907-0.003906c-0.30078-0.89453-0.54297-1.8086-0.73438-2.7305-0.14453-0.87891 0.32031-1.7422 1.1289-2.1055z"/>
  <path d="m74.059 28.52c-0.03125 0.80078 0.33203 1.5625 0.96875 2.0469 0.51172 0.35547 1.1523 0.47656 1.7578 0.33203 0.60938-0.14453 1.125-0.54688 1.418-1.0977 0.19922-0.46094 0.28516-0.96094 0.25781-1.4609 0.003906-2.6562 0.011718-5.3164 0.019531-7.9727-0.039063-0.81641 0.24219-1.6172 0.78516-2.2305 0.85156-0.67188 1.6016-1.4688 2.2227-2.3633 0.71484-1.4727 0.97266-3.125 0.74609-4.7461-0.085937-0.64844-0.45703-1.2227-1.0156-1.5625-0.55469-0.33984-1.2344-0.40625-1.8477-0.1875-0.57031 0.25-1.0156 0.71484-1.2344 1.2969-0.40234 0.92188 0.035156 2.0039-0.46484 2.8984-0.58594 1.0273-1.6953 1.6016-2.3789 2.5547-0.97656 1.418-1.4141 3.1328-1.2422 4.8477 0.003907 2.5469 0 5.0938 0.007813 7.6445z"/>
  <path d="m13.449 49.699c1.0352-0.11719 1.8398-0.96094 1.8984-2.0039 0.042969-1.9258-0.003906-3.8555 0.039063-5.7812h0.003906c0.070313-0.91406 0.41016-1.7891 0.97656-2.5078 1.2109-1.7852 2.4727-3.5352 3.6406-5.3477 1.1172-1.4258 1.8242-3.1289 2.0469-4.9258 0.046874-1.7891 0.023437-3.582 0.023437-5.3711 0.023437-0.66797-0.26562-1.3047-0.78516-1.7227-0.51562-0.41797-1.2031-0.56641-1.8477-0.40234-0.99219 0.34766-1.6641 1.2695-1.6914 2.3203-0.046875 1.5742 0.023438 3.1484-0.023437 4.7227-0.20703 1.0703-0.67578 2.0742-1.3594 2.9219-0.96484 1.3633-1.8633 2.7656-2.8125 4.1406-1.3789 1.6016-2.2617 3.5742-2.5352 5.668-0.015626 2.0938-0.003907 4.1875 0 6.2812 0.039062 0.59375 0.32422 1.1445 0.78125 1.5273 0.45703 0.37891 1.0547 0.55469 1.6445 0.48047z"/>
  <path d="m85.398 39.512c1.1094-0.035157 2.0117-0.89844 2.0977-2.0078 0.042968-2.2656 0.011718-4.5312 0.058594-6.793v0.003906c0.082031-0.74609 0.51172-1.4062 1.1602-1.7852 0.84766-0.58203 1.1562-1.6836 0.73828-2.6211-0.51562-0.94531-1.6055-1.418-2.6484-1.1484-2.2344 0.83594-3.6914 2.9961-3.625 5.3789 0.003906 2.2695-0.015626 4.5391 0.015624 6.8047l-0.003906 0.003906c0.011719 1.2031 1 2.1758 2.207 2.1641z"/>
  <path d="m94.016 94.566c-0.77344-0.71484-1.7891-1.1094-2.8438-1.1055-4.9258 0.011718-9.8516 0.011718-14.773 0-0.94531-0.10938-1.8594-0.38672-2.707-0.81641-5.8086-2.3047-11.793-4.1328-17.898-5.457-2.8125-0.50781-5.6758-0.65234-8.5234-0.42969-3.6367 0.40234-7.2188 1.1914-10.691 2.3516-3.9922 1.2695-7.9688 2.5977-11.871 4.1172-0.39453 0.16797-0.81641 0.25-1.2422 0.25-4.9805 0-9.9609-0.003906-14.941-0.011718-1.207 0.015625-2.3359 0.60547-3.0312 1.5938-0.66797 1.0195-0.39844 2.3867 0.60547 3.0781 0.71875 0.49609 1.6172 0.20703 2.4258 0.25391 28.113-0.007813 56.227-0.007813 84.34 0 0.83984-0.003906 1.5898-0.52344 1.8828-1.3086 0.28516-0.91016 0-1.9023-0.73047-2.5156z"/>
 </g>
<text x="0.0" y="117.5" font-size="5.0" font-weight="bold" font-family="Arbeit Regular, Helvetica, Arial-Unicode, Arial, Sans-serif" fill="#000000">Created by visual language</text><text x="0.0" y="122.5" font-size="5.0" font-weight="bold" font-family="Arbeit Regular, Helvetica, Arial-Unicode, Arial, Sans-serif" fill="#000000">from Noun Project</text></svg>